<svg xmlns="http://www.w3.org/2000/svg" width="32" height="32" viewBox="0 0 32 32" role="img" aria-label="MARÉ — wave">
  <rect width="32" height="32" rx="7" fill="#06141A"/>
  <path d="M4 19c2.2 0 2.2-3 4.4-3s2.2 3 4.4 3 2.2-3 4.4-3 2.2 3 4.4 3 2.2-3 4.4-3 2.2 3 4.4 3" fill="none" stroke="#34E0C4" stroke-width="2" stroke-linecap="round"/>
  <path d="M4 24c2.2 0 2.2-3 4.4-3s2.2 3 4.4 3 2.2-3 4.4-3 2.2 3 4.4 3 2.2-3 4.4-3 2.2 3 4.4 3" fill="none" stroke="#FF6A45" stroke-width="2" stroke-linecap="round" opacity="0.9"/>
</svg>
